<?xml version="1.0" encoding="UTF-8" standalone="no"?>
<!-- Created with Inkscape (http://www.inkscape.org/) -->

<svg
   version="1.1"
   id="svg1"
   width="816"
   height="1056"
   viewBox="0 0 816 1056"
   sodipodi:docname="Diagram.pdf"
   xmlns:inkscape="http://www.inkscape.org/namespaces/inkscape"
   xmlns:sodipodi="http://sodipodi.sourceforge.net/DTD/sodipodi-0.dtd"
   xmlns="http://www.w3.org/2000/svg"
   xmlns:svg="http://www.w3.org/2000/svg">
  <defs
     id="defs1" />
  <sodipodi:namedview
     id="namedview1"
     pagecolor="#ffffff"
     bordercolor="#000000"
     borderopacity="0.25"
     inkscape:showpageshadow="2"
     inkscape:pageopacity="0.0"
     inkscape:pagecheckerboard="0"
     inkscape:deskcolor="#d1d1d1">
    <inkscape:page
       x="0"
       y="0"
       inkscape:label="1"
       id="page1"
       width="816"
       height="1056"
       margin="0"
       bleed="0" />
  </sodipodi:namedview>
  <g
     id="g1"
     inkscape:groupmode="layer"
     inkscape:label="1">
    <path
       id="path1"
       d="M -14.1734,-226.77457 H 70.86704 V 226.77456 H -14.1734 Z"
       style="fill:none;stroke:#000000;stroke-width:0.79701;stroke-linecap:butt;stroke-linejoin:miter;stroke-miterlimit:10;stroke-dasharray:none;stroke-opacity:1"
       transform="matrix(1.3333333,0,0,-1.3333333,217.712,469.296)" />
    <path
       id="path2"
       d="m 7.2062422,-2.7316016 h -0.46875 c -0.2226563,1.3710938 -0.5039063,2.26171879 -2.34375,2.26171879 H 2.8820234 V -3.2823828 h 0.5390625 c 0.9609375,0 1.0664063,0.4335937 1.0664063,1.171875 H 4.9445234 V -4.9112891 H 4.4874922 c 0,0.7382813 -0.09375,1.1601563 -1.0664063,1.1601563 H 2.8820234 v -2.5546875 h 1.5117188 c 1.6054687,0 1.8632812,0.7265625 2.015625,1.9335937 h 0.46875 L 6.5734297,-6.7745703 H 0.38592969 v 0.46875 H 1.4640547 v 5.83593749 H 0.38592969 v 0.46875 H 6.7374922 Z M 11.53632,-4.1261328 10.083195,-4.4308203 c -0.3984372,-0.09375 -0.9492184,-0.4335938 -0.9492184,-1.0429688 0,-0.421875 0.28125,-1.0429687 1.2773434,-1.0429687 0.796875,0 1.804688,0.3398437 2.027344,1.6992187 0.03516,0.234375 0.03516,0.2578125 0.246094,0.2578125 0.246094,0 0.246094,-0.058594 0.246094,-0.28125 v -1.828125 c 0,-0.1875 0,-0.2695312 -0.1875,-0.2695312 -0.07031,0 -0.08203,0 -0.199219,0.1054687 l -0.445313,0.4335938 c -0.574218,-0.4570313 -1.21875,-0.5390625 -1.699218,-0.5390625 -1.5117192,0 -2.2382817,0.9492187 -2.2382817,1.9921875 0,0.65625 0.328125,1.1132812 0.5390625,1.3242187 0.4921875,0.4921875 0.8320313,0.5625 1.9218752,0.796875 0.867187,0.1992188 1.042969,0.2226563 1.253906,0.4335938 0.152344,0.1523437 0.398438,0.4101562 0.398438,0.8671875 0,0.4804687 -0.257813,1.16015624 -1.289063,1.16015624 -0.761719,0 -2.2734374,-0.19921875 -2.3554687,-1.67578124 0,-0.1875 0,-0.234375 -0.2226562,-0.234375 -0.2460938,0 -0.2460938,0.058594 -0.2460938,0.2929687 v 1.81640629 c 0,0.1875 0,0.26953125 0.1875,0.26953125 0.082031,0 0.1054688,-0.01171875 0.1875,-0.08203125 l 0.4570313,-0.45703125 c 0.65625,0.48046875 1.5820314,0.5390625 1.9921874,0.5390625 1.640625,0 2.261719,-1.12500004 2.261719,-2.13281254 0,-1.1015625 -0.808594,-1.9101562 -1.710938,-2.0976562 z m 5.238282,1.1132812 h 1.757812 c 1.382813,0 2.542969,-0.7148437 2.542969,-1.875 0,-1.1015625 -0.984375,-1.9453125 -2.636719,-1.9453125 h -4.160156 v 0.46875 h 1.078125 v 5.89453129 h -1.078125 v 0.46875 c 0.375,-0.03515625 1.359375,-0.03515625 1.78125,-0.03515625 0.433594,0 1.40625,0 1.78125,0.03515625 v -0.46875 h -1.066406 z m 1.265625,-0.4101562 h -1.324219 v -2.9414063 h 1.335937 c 1.5,0 1.5,0.75 1.5,1.4765625 0,0.703125 0,1.4648438 -1.511718,1.4648438 z m 7.189453,-0.082031 c 0.691406,-0.2109375 1.417968,-0.7851562 1.417968,-1.640625 0,-0.7617187 -0.761718,-1.3828125 -2.167968,-1.3828125 -1.183594,0 -1.957032,0.6445313 -1.957032,1.4414063 0,0.421875 0.304688,0.6914062 0.691407,0.6914062 0.445312,0 0.691406,-0.3164062 0.691406,-0.6914062 0,-0.5742188 -0.539063,-0.6796875 -0.574219,-0.6914063 0.351563,-0.28125 0.785156,-0.3632812 1.089844,-0.3632812 0.832031,0 0.855469,0.6445312 0.855469,0.9726562 0,0.1289063 0,1.4296875 -1.042969,1.4882813 -0.410156,0.023437 -0.421875,0.035156 -0.480469,0.046875 -0.09375,0.011719 -0.117187,0.1054687 -0.117187,0.1640625 0,0.1757812 0.105468,0.1757812 0.28125,0.1757812 h 0.433593 c 1.089844,0 1.089844,0.984375 1.089844,1.4882813 0,0.46875 0,1.48828124 -1.03125,1.48828124 -0.257812,0 -0.785156,-0.046875 -1.253906,-0.33984375 0.328125,-0.09375 0.574219,-0.33984375 0.574219,-0.74999999 0,-0.4453125 -0.316407,-0.75 -0.761719,-0.75 -0.410156,0 -0.761719,0.2578125 -0.761719,0.7734375 0,0.89062499 0.960938,1.48828124 2.25,1.48828124 1.78125,0 2.507813,-0.99609375 2.507813,-1.89843754 0,-0.5507812 -0.292969,-1.40625 -1.734375,-1.7109375 z m 7.368164,1.2890625 h -0.457031 c -0.03516,0.1992188 -0.128907,0.84375 -0.269532,0.9140625 -0.105468,0.058594 -0.855468,0.058594 -1.007812,0.058594 h -1.464844 c 0.46875,-0.3867188 0.984375,-0.8203125 1.429688,-1.1484375 1.136718,-0.8320313 1.769531,-1.3007813 1.769531,-2.25 0,-1.1484375 -1.03125,-1.8867188 -2.4375,-1.8867188 -1.207031,0 -2.144531,0.6210938 -2.144531,1.5117188 0,0.5976562 0.480468,0.7382812 0.726562,0.7382812 0.316406,0 0.714844,-0.2109375 0.714844,-0.7148437 0,-0.515625 -0.421875,-0.6796875 -0.574219,-0.7148438 0.292969,-0.234375 0.667969,-0.3515625 1.03125,-0.3515625 0.855469,0 1.3125,0.6796875 1.3125,1.4296875 0,0.6796875 -0.375,1.359375 -1.078125,2.0742188 l -1.992187,2.03906249 c -0.140625,0.1171875 -0.140625,0.140625 -0.140625,0.33984375 v 0.17578125 h 4.277343 z m 0,0"
       style="fill:#000000;fill-opacity:1;fill-rule:nonzero;stroke:none"
       aria-label="ESP32"
       transform="matrix(1.3333333,0,0,1.3333333,214.48933,209.28667)" />
    <path
       id="path3"
       d="m 42.52022,191.34097 h 28.34679 v 14.17337 H 42.52022 Z"
       style="fill:none;stroke:#000000;stroke-width:0.3985;stroke-linecap:butt;stroke-linejoin:miter;stroke-miterlimit:10;stroke-dasharray:none;stroke-opacity:1"
       transform="matrix(1.3333333,0,0,-1.3333333,217.712,469.296)" />
    <path
       id="path4"
       d="m 6.1875547,-5.8230703 c 0.140625,-0.375 0.4101562,-0.65625 1.0898437,-0.6679688 v -0.3164062 c -0.3164062,0.023437 -0.7148437,0.035156 -0.9726562,0.035156 -0.2929688,0 -0.8789063,-0.023437 -1.1367188,-0.035156 v 0.3164062 c 0.515625,0.011719 0.7265625,0.2695313 0.7265625,0.4921875 0,0.082031 -0.023437,0.140625 -0.046875,0.1992188 L 4.0195859,-0.99494531 2.1211484,-6.0222891 c -0.058594,-0.140625 -0.058594,-0.1640625 -0.058594,-0.1875 0,-0.28125 0.5625,-0.28125 0.8203125,-0.28125 v -0.3164062 c -0.3632813,0.035156 -1.0546875,0.035156 -1.4296875,0.035156 -0.48046876,0 -0.90234376,-0.023437 -1.26562501,-0.035156 v 0.3164062 c 0.64453125,0 0.84375001,0 0.97265621,0.375 l 2.3203125,6.11718754 c 0.070312,0.1875 0.1171875,0.22265625 0.2460938,0.22265625 0.1640625,0 0.1875,-0.0585938 0.234375,-0.1875 z m 3.5214844,-0.1992188 c 0,-0.3632812 0.035156,-0.46875 0.8203129,-0.46875 h 0.257812 v -0.3164062 c -0.351562,0.035156 -1.1367187,0.035156 -1.5117187,0.035156 -0.3867187,0 -1.171875,0 -1.5234375,-0.035156 v 0.3164062 h 0.2578125 c 0.7851563,0 0.8203125,0.1054688 0.8203125,0.46875 v 5.25000004 c 0,0.3515625 -0.035156,0.46875 -0.8203125,0.46875 H 7.7520078 v 0.3046875 c 0.3515625,-0.03515625 1.1367188,-0.03515625 1.5117188,-0.03515625 0.3867187,0 1.1718754,0 1.5234374,0.03515625 v -0.3046875 h -0.257812 c -0.7851567,0 -0.8203129,-0.1171875 -0.8203129,-0.46875 z m 3.6679689,-0.65625 c -0.08203,-0.1171875 -0.09375,-0.1289062 -0.28125,-0.1289062 h -1.699219 v 0.3164062 h 0.292969 c 0.140625,0 0.339844,0.011719 0.492187,0.011719 0.234375,0.035156 0.246094,0.046875 0.246094,0.234375 v 5.203125 c 0,0.26953124 0,0.73828124 -1.03125,0.73828124 v 0.3046875 c 0.351563,-0.01171875 0.832031,-0.03515625 1.171875,-0.03515625 0.328125,0 0.808594,0.0234375 1.160156,0.03515625 v -0.3046875 c -1.03125,0 -1.03125,-0.46875 -1.03125,-0.73828124 v -5.1796875 c 0.05859,0.046875 0.07031,0.058594 0.105469,0.1171875 l 4.066406,5.97656249 c 0.08203,0.1171875 0.09375,0.12890625 0.164063,0.12890625 0.140625,0 0.140625,-0.0703125 0.140625,-0.2578125 V -5.7527578 c 0,-0.2695313 0,-0.7382813 1.03125,-0.7382813 v -0.3164062 c -0.351563,0.011719 -0.84375,0.035156 -1.171875,0.035156 -0.328125,0 -0.820313,-0.023437 -1.160156,-0.035156 v 0.3164062 c 1.019531,0 1.019531,0.46875 1.019531,0.7382813 v 4.2539062 z m 0,0"
       style="fill:#000000;fill-opacity:1;fill-rule:nonzero;stroke:none"
       aria-label="VIN"
       transform="matrix(1.3333333,0,0,1.3333333,280.94133,209.268)" />
    <path
       id="path5"
       d="m 42.52022,162.99416 h 28.34679 v 14.17337 H 42.52022 Z"
       style="fill:none;stroke:#000000;stroke-width:0.3985;stroke-linecap:butt;stroke-linejoin:miter;stroke-miterlimit:10;stroke-dasharray:none;stroke-opacity:1"
       transform="matrix(1.3333333,0,0,-1.3333333,217.712,469.296)" />
    <path
       id="path6"
       d="m 5.9056172,-0.6329375 c 0.1289062,0.22265625 0.5273437,0.62109375 0.6328125,0.62109375 0.09375,0 0.09375,-0.08203125 0.09375,-0.22265625 v -1.734375 c 0,-0.3867188 0.046875,-0.4453125 0.6914062,-0.4453125 V -2.718875 c -0.375,0.011719 -0.9140625,0.023437 -1.21875,0.023437 -0.3984375,0 -1.2421875,0 -1.6054687,-0.023437 v 0.3046875 h 0.3164062 c 0.9023438,0 0.9257813,0.1171875 0.9257813,0.4804687 v 0.6328125 c 0,1.12500005 -1.2539063,1.2070313 -1.5351563,1.2070313 -0.65625,0 -2.625,-0.33984375 -2.625,-3.3164063 0,-2.9765625 1.96875,-3.3046875 2.5664063,-3.3046875 1.0664062,0 1.96875,0.9023438 2.1679687,2.3671875 0.023437,0.1289063 0.023437,0.1640625 0.1640625,0.1640625 0.1523438,0 0.1523438,-0.035156 0.1523438,-0.234375 v -2.3671875 c 0,-0.1640625 0,-0.234375 -0.1054688,-0.234375 -0.046875,0 -0.082031,0 -0.1640625,0.1171875 l -0.4921875,0.7382813 c -0.328125,-0.3164063 -0.8554687,-0.8554688 -1.8515625,-0.8554688 -1.8515625,0 -3.45703121,1.5703125 -3.45703121,3.609375 0,2.0507813 1.59375001,3.63281255 3.48046871,3.63281255 0.7265625,0 1.5234375,-0.2578125 1.8632813,-0.85546875 z m 4.2216798,-6.046875 C 10.045266,-6.797 10.033547,-6.8087188 9.8460469,-6.8087188 H 8.1468281 v 0.3164063 h 0.2929688 c 0.140625,0 0.3398437,0.011719 0.4921875,0.011719 0.234375,0.035156 0.2460937,0.046875 0.2460937,0.234375 v 5.203125 c 0,0.2695313 0,0.7382813 -1.03125,0.7382813 V -1.25e-4 c 0.3515625,-0.01171875 0.8320313,-0.03515625 1.171875,-0.03515625 0.328125,0 0.8085939,0.0234375 1.1601559,0.03515625 v -0.3046875 c -1.0312496,0 -1.0312496,-0.46875 -1.0312496,-0.7382813 v -5.1796875 c 0.058594,0.046875 0.070312,0.058594 0.1054687,0.1171875 l 4.0664059,5.97656255 c 0.08203,0.1171875 0.09375,0.12890625 0.164063,0.12890625 0.140625,0 0.140625,-0.0703125 0.140625,-0.2578125 v -5.4960938 c 0,-0.2695312 0,-0.7382812 1.03125,-0.7382812 v -0.3164063 c -0.351563,0.011719 -0.84375,0.035156 -1.171875,0.035156 -0.328125,0 -0.820313,-0.023437 -1.160156,-0.035156 v 0.3164063 c 1.019531,0 1.019531,0.46875 1.019531,0.7382812 v 4.2539063 z m 5.513672,-0.1289063 v 0.3164063 h 0.234375 c 0.773437,0 0.785156,0.1054687 0.785156,0.46875 v 5.25 c 0,0.3515625 -0.01172,0.46875 -0.785156,0.46875 H 15.640969 V -1.25e-4 H 19.2855 c 1.675781,0 3.046875,-1.4765625 3.046875,-3.3515625 0,-1.8867188 -1.347656,-3.4570313 -3.046875,-3.4570313 z m 2.367187,6.5039063 c -0.46875,0 -0.492187,-0.0703125 -0.492187,-0.3984375 v -5.390625 c 0,-0.328125 0.02344,-0.3984375 0.492187,-0.3984375 h 0.996094 c 0.621094,0 1.300781,0.2109375 1.816406,0.9257812 0.421875,0.5859375 0.515625,1.4414063 0.515625,2.2148438 0,1.1132812 -0.1875,1.7109375 -0.550781,2.1914062 -0.199219,0.2695313 -0.761719,0.8554688 -1.769531,0.8554688 z m 0,0"
       style="fill:#000000;fill-opacity:1;fill-rule:nonzero;stroke:none"
       aria-label="GND"
       transform="matrix(1.3333333,0,0,1.3333333,278.036,247.06267)" />
    <path
       id="path7"
       d="M 42.52022,21.26012 H 70.86701 V 35.43349 H 42.52022 Z"
       style="fill:none;stroke:#000000;stroke-width:0.3985;stroke-linecap:butt;stroke-linejoin:miter;stroke-miterlimit:10;stroke-dasharray:none;stroke-opacity:1"
       transform="matrix(1.3333333,0,0,-1.3333333,217.712,469.296)" />
    <path
       id="path8"
       d="m 0.35101563,-6.8092969 v 0.3164063 h 0.234375 c 0.77343747,0 0.78515627,0.1054687 0.78515627,0.46875 v 5.24999997 c 0,0.3515625 -0.011719,0.46875 -0.78515627,0.46875 h -0.234375 V -7.03125e-4 H 3.9955469 c 1.6757812,0 3.046875,-1.476562475 3.046875,-3.351562475 0,-1.8867188 -1.3476563,-3.4570313 -3.046875,-3.4570313 z m 2.36718747,6.50390627 c -0.46875,0 -0.4921875,-0.0703125 -0.4921875,-0.3984375 V -6.0944531 c 0,-0.328125 0.023437,-0.3984375 0.4921875,-0.3984375 h 0.9960938 c 0.6210937,0 1.3007812,0.2109375 1.8164062,0.9257812 0.421875,0.5859375 0.515625,1.4414063 0.515625,2.2148438 0,1.1132812 -0.1875,1.7109375 -0.5507812,2.1914062 -0.1992188,0.26953127 -0.7617188,0.85546877 -1.7695313,0.85546877 z M 8.8764063,-0.76242188 9.9310938,-1.7936719 c 1.5585942,-1.3710937 2.1562502,-1.9101562 2.1562502,-2.90625 0,-1.1367187 -0.902344,-1.9335937 -2.121094,-1.9335937 -1.125,0 -1.8515625,0.9140625 -1.8515625,1.8046875 0,0.5507812 0.4921875,0.5507812 0.5273438,0.5507812 0.1640625,0 0.515625,-0.1171875 0.515625,-0.5273437 0,-0.2578125 -0.1875,-0.515625 -0.5273438,-0.515625 -0.082031,0 -0.1054687,0 -0.1289062,0.011719 0.2226562,-0.6445312 0.7617187,-1.0195312 1.3359375,-1.0195312 0.9140622,0 1.3359372,0.8085937 1.3359372,1.6289062 0,0.796875 -0.492187,1.5820313 -1.042968,2.203125 L 8.2201563,-0.36398438 C 8.1146875,-0.25851563 8.1146875,-0.23507813 8.1146875,-7.03125e-4 h 3.6914065 l 0.28125,-1.734374975 h -0.257813 c -0.04687,0.3046875 -0.117187,0.73828122 -0.210937,0.89062497 -0.07031,0.0820313 -0.726563,0.0820313 -0.949219,0.0820313 z M 13.90375,-3.2702344 v -0.234375 c 0,-2.5195312 1.242188,-2.8828125 1.746094,-2.8828125 0.234375,0 0.65625,0.058594 0.878906,0.3984375 -0.152344,0 -0.550781,0 -0.550781,0.4453125 0,0.3164063 0.234375,0.4570313 0.457031,0.4570313 0.164063,0 0.457031,-0.082031 0.457031,-0.46875 0,-0.5976563 -0.433593,-1.078125 -1.265625,-1.078125 -1.277343,0 -2.613281,1.2890625 -2.613281,3.4804687 0,2.66015627 1.148438,3.37500002 2.074219,3.37500002 1.113281,0 2.050781,-0.9375 2.050781,-2.25000002 0,-1.265625 -0.878906,-2.2265625 -1.992187,-2.2265625 -0.667969,0 -1.042969,0.5039063 -1.242188,0.984375 z m 1.183594,3.21093752 c -0.621094,0 -0.925781,-0.59765625 -0.984375,-0.75 -0.175781,-0.46875002 -0.175781,-1.26562502 -0.175781,-1.44140622 0,-0.7734375 0.316406,-1.7695313 1.21875,-1.7695313 0.152343,0 0.609375,0 0.925781,0.609375 0.175781,0.375 0.175781,0.8789063 0.175781,1.3710938 0,0.4804687 0,0.9726562 -0.164062,1.33593747 -0.304688,0.59765625 -0.761719,0.64453125 -0.996094,0.64453125 z m 0,0"
       style="fill:#000000;fill-opacity:1;fill-rule:nonzero;stroke:none"
       aria-label="D26"
       transform="matrix(1.3333333,0,0,1.3333333,281.58667,436.04)" />
    <path
       id="path9"
       d="M 42.52022,-7.08669 H 70.86701 V 7.08668 H 42.52022 Z"
       style="fill:none;stroke:#000000;stroke-width:0.3985;stroke-linecap:butt;stroke-linejoin:miter;stroke-miterlimit:10;stroke-dasharray:none;stroke-opacity:1"
       transform="matrix(1.3333333,0,0,-1.3333333,217.712,469.296)" />
    <path
       id="path10"
       d="m 0.35101563,-6.8076406 v 0.3164062 h 0.234375 c 0.77343747,0 0.78515627,0.1054688 0.78515627,0.46875 v 5.25000003 c 0,0.3515625 -0.011719,0.46875 -0.78515627,0.46875 h -0.234375 V 9.53125e-4 H 3.9955469 c 1.6757812,0 3.046875,-1.476562525 3.046875,-3.351562525 0,-1.8867187 -1.3476563,-3.4570312 -3.046875,-3.4570312 z m 2.36718747,6.50390623 c -0.46875,0 -0.4921875,-0.0703125 -0.4921875,-0.3984375 V -6.0927969 c 0,-0.328125 0.023437,-0.3984375 0.4921875,-0.3984375 h 0.9960938 c 0.6210937,0 1.3007812,0.2109375 1.8164062,0.9257813 0.421875,0.5859375 0.515625,1.4414062 0.515625,2.2148437 0,1.1132813 -0.1875,1.7109375 -0.5507812,2.1914063 -0.1992188,0.26953123 -0.7617188,0.85546873 -1.7695313,0.85546873 z M 8.8764063,-0.76076562 9.9310938,-1.7920156 c 1.5585942,-1.3710938 2.1562502,-1.9101563 2.1562502,-2.90625 0,-1.1367188 -0.902344,-1.9335938 -2.121094,-1.9335938 -1.125,0 -1.8515625,0.9140625 -1.8515625,1.8046875 0,0.5507813 0.4921875,0.5507813 0.5273438,0.5507813 0.1640625,0 0.515625,-0.1171875 0.515625,-0.5273438 0,-0.2578125 -0.1875,-0.515625 -0.5273438,-0.515625 -0.082031,0 -0.1054687,0 -0.1289062,0.011719 0.2226562,-0.6445313 0.7617187,-1.0195313 1.3359375,-1.0195313 0.9140622,0 1.3359372,0.8085938 1.3359372,1.6289063 0,0.796875 -0.492187,1.5820312 -1.042968,2.203125 L 8.2201563,-0.36232812 C 8.1146875,-0.25685937 8.1146875,-0.23342187 8.1146875,9.53125e-4 h 3.6914065 l 0.28125,-1.734375025 h -0.257813 c -0.04687,0.3046875 -0.117187,0.73828128 -0.210937,0.89062503 -0.07031,0.0820313 -0.726563,0.0820313 -0.949219,0.0820313 z M 17.067813,-2.0029531 c 0,-1.1835938 -0.820313,-2.1796875 -1.898438,-2.1796875 -0.480469,0 -0.902344,0.1640625 -1.265625,0.5039062 v -1.9335937 c 0.199219,0.058594 0.527344,0.1289062 0.84375,0.1289062 1.230469,0 1.933594,-0.9140625 1.933594,-1.0429687 0,-0.058594 -0.03516,-0.1054688 -0.105469,-0.1054688 -0.01172,0 -0.03516,0 -0.08203,0.023437 -0.199219,0.09375 -0.679688,0.2929688 -1.347656,0.2929688 -0.398438,0 -0.855469,-0.070312 -1.324219,-0.28125 -0.08203,-0.023437 -0.105469,-0.023437 -0.128906,-0.023437 -0.09375,0 -0.09375,0.082031 -0.09375,0.234375 v 2.953125 c 0,0.1757812 0,0.2578125 0.140625,0.2578125 0.07031,0 0.08203,-0.035156 0.128906,-0.09375 0.105469,-0.1523438 0.480469,-0.6914063 1.277344,-0.6914063 0.527343,0 0.773437,0.4570313 0.855468,0.6328125 0.152344,0.375 0.175782,0.7617188 0.175782,1.2539063 0,0.3515625 0,0.9492187 -0.234375,1.37109373 -0.246094,0.38671875 -0.609375,0.64453125 -1.066407,0.64453125 -0.726562,0 -1.300781,-0.52734375 -1.464843,-1.11328128 0.02344,0.011719 0.05859,0.011719 0.164062,0.011719 0.328125,0 0.503906,-0.2460938 0.503906,-0.4804688 0,-0.2460937 -0.175781,-0.4921875 -0.503906,-0.4921875 -0.140625,0 -0.480469,0.070312 -0.480469,0.5273438 0,0.85546873 0.679688,1.82812498 1.792969,1.82812498 1.160156,0 2.179688,-0.9609375 2.179688,-2.22656248 z m 0,0"
       style="fill:#000000;fill-opacity:1;fill-rule:nonzero;stroke:none"
       aria-label="D25"
       transform="matrix(1.3333333,0,0,1.3333333,281.58667,473.83467)" />
    <path
       id="path11"
       d="m 42.52022,-35.43349 h 28.34679 v 14.17337 H 42.52022 Z"
       style="fill:none;stroke:#000000;stroke-width:0.3985;stroke-linecap:butt;stroke-linejoin:miter;stroke-miterlimit:10;stroke-dasharray:none;stroke-opacity:1"
       transform="matrix(1.3333333,0,0,-1.3333333,217.712,469.296)" />
    <path
       id="path12"
       d="m 0.35101563,-6.8089141 v 0.3164063 h 0.234375 c 0.77343747,0 0.78515627,0.1054687 0.78515627,0.46875 v 5.24999999 c 0,0.3515625 -0.011719,0.46875 -0.78515627,0.46875 h -0.234375 V -3.203125e-4 H 3.9955469 c 1.6757812,0 3.046875,-1.4765624875 3.046875,-3.3515624875 0,-1.8867188 -1.3476563,-3.4570313 -3.046875,-3.4570313 z m 2.36718747,6.50390629 c -0.46875,0 -0.4921875,-0.0703125 -0.4921875,-0.3984375 V -6.0940703 c 0,-0.328125 0.023437,-0.3984375 0.4921875,-0.3984375 h 0.9960938 c 0.6210937,0 1.3007812,0.2109375 1.8164062,0.9257812 0.421875,0.5859375 0.515625,1.4414063 0.515625,2.2148438 0,1.1132812 -0.1875,1.7109375 -0.5507812,2.1914062 -0.1992188,0.26953129 -0.7617188,0.85546879 -1.7695313,0.85546879 z M 10.505313,-3.5042266 c 0.808593,-0.2695312 1.394531,-0.9726562 1.394531,-1.7578125 0,-0.8203125 -0.878906,-1.3710937 -1.839844,-1.3710937 -1.0078125,0 -1.7578125,0.5976562 -1.7578125,1.3476562 0,0.3398438 0.2109375,0.5273438 0.5039063,0.5273438 0.3046875,0 0.5039062,-0.2226563 0.5039062,-0.515625 0,-0.4921875 -0.46875,-0.4921875 -0.609375,-0.4921875 0.3046875,-0.4921875 0.9609375,-0.6210938 1.324219,-0.6210938 0.410156,0 0.949219,0.2226563 0.949219,1.1132813 0,0.1289062 -0.01172,0.703125 -0.269532,1.1367187 -0.304687,0.4804688 -0.644531,0.515625 -0.8906247,0.515625 -0.082031,0.011719 -0.3164063,0.035156 -0.3867188,0.035156 -0.082031,0.011719 -0.1523437,0.023437 -0.1523437,0.1171875 0,0.1171875 0.070312,0.1171875 0.234375,0.1171875 h 0.4453125 c 0.8085937,0 1.1835937,0.6679687 1.1835937,1.6523437 0,1.34765629 -0.691406,1.64062504 -1.125,1.64062504 -0.4335937,0 -1.171875,-0.17578125 -1.5234375,-0.76171875 0.3515625,0.0585938 0.65625,-0.1640625 0.65625,-0.53906249 0,-0.3632813 -0.2695312,-0.5625 -0.5625,-0.5625 -0.234375,0 -0.5507812,0.140625 -0.5507812,0.5742187 0,0.91406254 0.9257812,1.57031254 2.0039067,1.57031254 1.21875,0 2.121093,-0.9140625 2.121093,-1.92187504 0,-0.8203125 -0.621093,-1.59375 -1.652343,-1.8046872 z m 4.980468,0 c 0.808594,-0.2695312 1.394532,-0.9726562 1.394532,-1.7578125 0,-0.8203125 -0.878907,-1.3710937 -1.839844,-1.3710937 -1.007813,0 -1.757813,0.5976562 -1.757813,1.3476562 0,0.3398438 0.210938,0.5273438 0.503907,0.5273438 0.304687,0 0.503906,-0.2226563 0.503906,-0.515625 0,-0.4921875 -0.46875,-0.4921875 -0.609375,-0.4921875 0.304687,-0.4921875 0.960937,-0.6210938 1.324219,-0.6210938 0.410156,0 0.949218,0.2226563 0.949218,1.1132813 0,0.1289062 -0.01172,0.703125 -0.269531,1.1367187 -0.304687,0.4804688 -0.644531,0.515625 -0.890625,0.515625 -0.08203,0.011719 -0.316406,0.035156 -0.386719,0.035156 -0.08203,0.011719 -0.152343,0.023437 -0.152343,0.1171875 0,0.1171875 0.07031,0.1171875 0.234375,0.1171875 H 14.935 c 0.808594,0 1.183594,0.6679687 1.183594,1.6523437 0,1.34765629 -0.691406,1.64062504 -1.125,1.64062504 -0.433594,0 -1.171875,-0.17578125 -1.523438,-0.76171875 0.351563,0.0585938 0.65625,-0.1640625 0.65625,-0.53906249 0,-0.3632813 -0.269531,-0.5625 -0.5625,-0.5625 -0.234375,0 -0.550781,0.140625 -0.550781,0.5742187 0,0.91406254 0.925781,1.57031254 2.003906,1.57031254 1.21875,0 2.121094,-0.9140625 2.121094,-1.92187504 0,-0.8203125 -0.621094,-1.59375 -1.652344,-1.8046872 z m 0,0"
       style="fill:#000000;fill-opacity:1;fill-rule:nonzero;stroke:none"
       aria-label="D33"
       transform="matrix(1.3333333,0,0,1.3333333,281.58667,511.62933)" />
    <path
       id="path13"
       d="m 42.52022,-63.7803 h 28.34679 v 14.17337 H 42.52022 Z"
       style="fill:none;stroke:#000000;stroke-width:0.3985;stroke-linecap:butt;stroke-linejoin:miter;stroke-miterlimit:10;stroke-dasharray:none;stroke-opacity:1"
       transform="matrix(1.3333333,0,0,-1.3333333,217.712,469.296)" />
    <path
       id="path14"
       d="m 0.35101563,-6.8082578 v 0.3164062 h 0.234375 c 0.77343747,0 0.78515627,0.1054688 0.78515627,0.46875 v 5.25000004 c 0,0.3515625 -0.011719,0.46875 -0.78515627,0.46875 h -0.234375 V 3.359375e-4 H 3.9955469 c 1.6757812,0 3.046875,-1.4765625375 3.046875,-3.3515625375 0,-1.8867187 -1.3476563,-3.4570312 -3.046875,-3.4570312 z m 2.36718747,6.50390624 c -0.46875,0 -0.4921875,-0.0703125 -0.4921875,-0.3984375 V -6.0934141 c 0,-0.328125 0.023437,-0.3984375 0.4921875,-0.3984375 h 0.9960938 c 0.6210937,0 1.3007812,0.2109375 1.8164062,0.9257813 0.421875,0.5859375 0.515625,1.4414062 0.515625,2.2148437 0,1.1132813 -0.1875,1.7109375 -0.5507812,2.1914063 -0.1992188,0.26953124 -0.7617188,0.85546874 -1.7695313,0.85546874 z M 10.505313,-3.5035703 c 0.808593,-0.2695313 1.394531,-0.9726563 1.394531,-1.7578125 0,-0.8203125 -0.878906,-1.3710938 -1.839844,-1.3710938 -1.0078125,0 -1.7578125,0.5976563 -1.7578125,1.3476563 0,0.3398437 0.2109375,0.5273437 0.5039063,0.5273437 0.3046875,0 0.5039062,-0.2226562 0.5039062,-0.515625 0,-0.4921875 -0.46875,-0.4921875 -0.609375,-0.4921875 0.3046875,-0.4921875 0.9609375,-0.6210937 1.324219,-0.6210937 0.410156,0 0.949219,0.2226562 0.949219,1.1132812 0,0.1289063 -0.01172,0.703125 -0.269532,1.1367188 -0.304687,0.4804687 -0.644531,0.515625 -0.8906247,0.515625 -0.082031,0.011719 -0.3164063,0.035156 -0.3867188,0.035156 -0.082031,0.011719 -0.1523437,0.023437 -0.1523437,0.1171875 0,0.1171875 0.070312,0.1171875 0.234375,0.1171875 h 0.4453125 c 0.8085937,0 1.1835937,0.6679688 1.1835937,1.6523438 0,1.34765624 -0.691406,1.64062499 -1.125,1.64062499 -0.4335937,0 -1.171875,-0.17578125 -1.5234375,-0.76171875 0.3515625,0.0585938 0.65625,-0.1640625 0.65625,-0.53906254 0,-0.3632812 -0.2695312,-0.5625 -0.5625,-0.5625 -0.234375,0 -0.5507812,0.140625 -0.5507812,0.5742188 0,0.91406249 0.9257812,1.57031249 2.0039067,1.57031249 1.21875,0 2.121093,-0.9140625 2.121093,-1.92187499 0,-0.8203125 -0.621093,-1.59375 -1.652343,-1.8046873 z m 3.351562,2.74218749 1.054688,-1.03124999 c 1.558593,-1.3710938 2.15625,-1.9101563 2.15625,-2.90625 0,-1.1367188 -0.902344,-1.9335938 -2.121094,-1.9335938 -1.125,0 -1.851563,0.9140625 -1.851563,1.8046875 0,0.5507813 0.492188,0.5507813 0.527344,0.5507813 0.164063,0 0.515625,-0.1171875 0.515625,-0.5273438 0,-0.2578125 -0.1875,-0.515625 -0.527344,-0.515625 -0.08203,0 -0.105468,0 -0.128906,0.011719 0.222656,-0.6445313 0.761719,-1.0195313 1.335938,-1.0195313 0.914062,0 1.335937,0.8085938 1.335937,1.6289063 0,0.796875 -0.492187,1.5820312 -1.042969,2.203125 l -1.910156,2.13281249 c -0.105469,0.10546875 -0.105469,0.12890625 -0.105469,0.3632812475 h 3.691407 L 17.067813,-1.7340391 H 16.81 c -0.04687,0.3046875 -0.117187,0.73828129 -0.210937,0.89062504 -0.07031,0.0820313 -0.726563,0.0820313 -0.949219,0.0820313 z m 0,0"
       style="fill:#000000;fill-opacity:1;fill-rule:nonzero;stroke:none"
       aria-label="D32"
       transform="matrix(1.3333333,0,0,1.3333333,281.58667,549.42533)" />
    <path
       id="path15"
       d="m 71.06627,170.08086 h 283.46809 v -283.4681"
       style="fill:none;stroke:#000000;stroke-width:0.3985;stroke-linecap:butt;stroke-linejoin:miter;stroke-miterlimit:10;stroke-dasharray:none;stroke-opacity:1"
       transform="matrix(1.3333333,0,0,-1.3333333,217.712,469.296)" />
    <path
       id="path16"
       d="m 354.53436,-113.38724 v -11.90558"
       style="fill:none;stroke:#000000;stroke-width:0.3985;stroke-linecap:butt;stroke-linejoin:miter;stroke-miterlimit:10;stroke-dasharray:none;stroke-opacity:1"
       transform="matrix(1.3333333,0,0,-1.3333333,217.712,469.296)" />
    <path
       id="path17"
       d="m 348.58151,-125.29282 h 11.9057 m -9.92132,-1.98423 h 7.93695 m -6.44881,-1.98438 h 4.96065"
       style="fill:none;stroke:#000000;stroke-width:0.797;stroke-linecap:butt;stroke-linejoin:miter;stroke-miterlimit:10;stroke-dasharray:none;stroke-opacity:1"
       transform="matrix(1.3333333,0,0,-1.3333333,217.712,469.296)" />
    <path
       id="path18"
       d="m 71.06627,198.42766 14.17338,-2e-5 m 0,0 14.17342,2e-5 -1e-5,-75.1191 m 0,-19.84269 1e-5,-75.11907 -1e-5,-14.17341 m 0,0 L 99.41307,0 H 85.23965 m 0,0 H 71.06627"
       style="fill:none;stroke:#000000;stroke-width:0.3985;stroke-linecap:butt;stroke-linejoin:miter;stroke-miterlimit:10;stroke-dasharray:none;stroke-opacity:1"
       transform="matrix(1.3333333,0,0,-1.3333333,217.712,469.296)" />
    <path
       id="path19"
       d="m 101.00021,198.42766 c 0,0.87657 -0.71058,1.58716 -1.58714,1.58716 -0.87656,0 -1.58714,-0.71059 -1.58714,-1.58716 0,-0.87656 0.71058,-1.58714 1.58714,-1.58714 0.87656,0 1.58714,0.71058 1.58714,1.58714 z"
       style="fill:#000000;fill-opacity:1;fill-rule:nonzero;stroke:#000000;stroke-width:0.3985;stroke-linecap:butt;stroke-linejoin:miter;stroke-miterlimit:10;stroke-dasharray:none;stroke-opacity:1"
       transform="matrix(1.3333333,0,0,-1.3333333,217.712,469.296)" />
    <path
       id="path20"
       d="m 104.37372,123.30856 v -19.84269 m 0,9.92135 h 4.96068"
       style="fill:none;stroke:#ff0000;stroke-width:0.797;stroke-linecap:butt;stroke-linejoin:miter;stroke-miterlimit:10;stroke-dasharray:none;stroke-opacity:1"
       transform="matrix(1.3333333,0,0,-1.3333333,217.712,469.296)" />
    <path
       id="path21"
       d="m 99.41306,121.7214 c 0.87655,0 1.58714,0.71059 1.58714,1.58716 0,0.87656 -0.71059,1.58714 -1.58714,1.58714 -0.87656,0 -1.58715,-0.71058 -1.58715,-1.58714 0,-0.87657 0.71059,-1.58716 1.58715,-1.58716 z"
       style="fill:#ffffff;fill-opacity:1;fill-rule:nonzero;stroke:#ff0000;stroke-width:0.797;stroke-linecap:butt;stroke-linejoin:miter;stroke-miterlimit:10;stroke-dasharray:none;stroke-opacity:1"
       transform="matrix(1.3333333,0,0,-1.3333333,217.712,469.296)" />
    <path
       id="path22"
       d="m 99.41306,101.87872 c 0.87655,0 1.58714,0.71059 1.58714,1.58715 0,0.87657 -0.71059,1.58715 -1.58714,1.58715 -0.87656,0 -1.58715,-0.71058 -1.58715,-1.58715 0,-0.87656 0.71059,-1.58715 1.58715,-1.58715 z"
       style="fill:#ffffff;fill-opacity:1;fill-rule:nonzero;stroke:#ff0000;stroke-width:0.797;stroke-linecap:butt;stroke-linejoin:miter;stroke-miterlimit:10;stroke-dasharray:none;stroke-opacity:1"
       transform="matrix(1.3333333,0,0,-1.3333333,217.712,469.296)" />
    <path
       id="path23"
       d="m 99.21382,0 h 111.68645 m 31.74838,0 h 111.68646"
       style="fill:none;stroke:#000000;stroke-width:0.3985;stroke-linecap:butt;stroke-linejoin:miter;stroke-miterlimit:10;stroke-dasharray:none;stroke-opacity:1"
       transform="matrix(1.3333333,0,0,-1.3333333,217.712,469.296)" />
    <path
       id="path24"
       d="m 210.50175,0 3.07741,5.95285 5.35782,-11.9057 5.35782,11.9057 5.35782,-11.9057 5.35782,11.9057 5.3578,-11.9057 L 243.04715,0"
       style="fill:none;stroke:#000000;stroke-width:0.797;stroke-linecap:butt;stroke-linejoin:bevel;stroke-miterlimit:10;stroke-dasharray:none;stroke-opacity:1"
       transform="matrix(1.3333333,0,0,-1.3333333,217.712,469.296)" />
    <path
       id="path25"
       d="m 100.80096,0 c 0,0.87656 -0.71058,1.58714 -1.58714,1.58714 -0.87655,0 -1.58714,-0.71058 -1.58714,-1.58714 0,-0.87656 0.71059,-1.58714 1.58714,-1.58714 0.87656,0 1.58714,0.71058 1.58714,1.58714 z"
       style="fill:#000000;fill-opacity:1;fill-rule:nonzero;stroke:#000000;stroke-width:0.3985;stroke-linecap:butt;stroke-linejoin:miter;stroke-miterlimit:10;stroke-dasharray:none;stroke-opacity:1"
       transform="matrix(1.3333333,0,0,-1.3333333,217.712,469.296)" />
    <path
       id="path26"
       d="m 355.92226,0 c 0,0.87656 -0.71059,1.58714 -1.58715,1.58714 -0.87657,0 -1.58715,-0.71058 -1.58715,-1.58714 0,-0.87656 0.71058,-1.58714 1.58715,-1.58714 0.87656,0 1.58715,0.71058 1.58715,1.58714 z"
       style="fill:#000000;fill-opacity:1;fill-rule:nonzero;stroke:#000000;stroke-width:0.3985;stroke-linecap:butt;stroke-linejoin:miter;stroke-miterlimit:10;stroke-dasharray:none;stroke-opacity:1"
       transform="matrix(1.3333333,0,0,-1.3333333,217.712,469.296)" />
    <path
       id="path27"
       d="m 2.9302656,-6.3739922 c 0,-0.234375 0,-0.2578125 -0.234375,-0.2578125 -0.609375,0.6328125 -1.4882812,0.6328125 -1.80468747,0.6328125 v 0.3164063 c 0.19921877,0 0.78515627,0 1.30078127,-0.2578125 v 5.15624996 c 0,0.3515625 -0.035156,0.48046875 -0.9257813,0.48046875 H 0.94979688 v 0.3046875 C 1.3013594,-0.03414844 2.1568281,-0.03414844 2.5552656,-0.03414844 c 0.3984375,0 1.265625,0 1.6171875,0.03515625 v -0.3046875 H 3.8560469 c -0.9023438,0 -0.9257813,-0.1171875 -0.9257813,-0.48046875 z m 6.6328125,3.1875 c 0,-0.796875 -0.046875,-1.59375 -0.3984375,-2.3320312 -0.4570312,-0.9609375 -1.2773437,-1.1132813 -1.6875,-1.1132813 -0.5976562,0 -1.3359375,0.2578125 -1.734375,1.1835938 -0.328125,0.6914062 -0.375,1.4648437 -0.375,2.2617187 0,0.75 0.046875,1.640625 0.4453125,2.40234376 0.4335938,0.80859375 1.1601563,1.0078125 1.6523438,1.0078125 0.5390625,0 1.2890625,-0.2109375 1.734375,-1.16015625 C 9.5162031,-1.6278984 9.5630781,-2.4013359 9.5630781,-3.1864922 Z M 7.4654219,0.00100781 c -0.3867188,0 -0.984375,-0.24609375 -1.1601563,-1.20703121 -0.1054687,-0.5976563 -0.1054687,-1.5117188 -0.1054687,-2.0976563 0,-0.6445312 0,-1.3007812 0.082031,-1.8398437 0.1875,-1.1835938 0.9257813,-1.265625 1.1835938,-1.265625 0.328125,0 0.984375,0.1757812 1.171875,1.1601562 0.09375,0.5625 0.09375,1.3125 0.09375,1.9453125 0,0.75 0,1.4179688 -0.1054688,2.0625 -0.1523437,0.93750001 -0.7148437,1.24218751 -1.160156,1.24218751 z m 5.2148441,-0.76171875 c 0,0.45703125 -0.105469,0.45703125 -0.773438,0.45703125 v 0.3046875 c 0.328125,-0.01171875 0.796875,-0.03515625 1.078125,-0.03515625 0.304688,0 0.703125,0.01171875 1.101563,0.03515625 v -0.3046875 c -0.667969,0 -0.773438,0 -0.773438,-0.45703125 V -1.7802422 l 0.632813,-0.5507812 c 0.773437,1.0546875 1.183593,1.61718746 1.183593,1.79296871 0,0.1875 -0.164062,0.234375 -0.351562,0.234375 v 0.3046875 c 0.269531,-0.01171875 0.867187,-0.03515625 1.066406,-0.03515625 0.292969,0 0.585938,0.01171875 0.867188,0.03515625 v -0.3046875 c -0.363282,0 -0.585938,0 -0.960938,-0.52734375 L 14.484953,-2.6239922 c -0.01172,-0.011719 -0.05859,-0.070312 -0.05859,-0.1054687 0,-0.035156 0.703125,-0.6328125 0.808594,-0.7148438 0.621094,-0.5039062 1.042969,-0.5273437 1.253906,-0.5390625 v -0.3046875 c -0.292968,0.023437 -0.421875,0.023437 -0.703125,0.023437 -0.351562,0 -0.972656,-0.023437 -1.113281,-0.023437 v 0.3046875 c 0.1875,0.011719 0.292969,0.1171875 0.292969,0.2460938 0,0.1992187 -0.140625,0.3164062 -0.222656,0.3867187 l -1.40625,1.21875 v -4.78125 l -1.429688,0.1054688 v 0.3164062 c 0.691406,0 0.773438,0.070312 0.773438,0.5507813 z M 23.622648,-1.6161797 h -0.246093 c -0.04687,0.2578125 -0.08203,0.4921875 -0.175782,0.72656251 -0.04687,0.1640625 -0.08203,0.24609375 -0.65625,0.24609375 h -0.796875 c 0.128907,-0.56249996 0.433594,-1.04296876 0.878907,-1.69921876 0.46875,-0.703125 0.878906,-1.3945312 0.878906,-2.1796875 0,-1.3828125 -1.335938,-2.4960937 -3.023438,-2.4960937 -1.710937,0 -3.035156,1.1367187 -3.035156,2.4960937 0,0.7851563 0.398438,1.4765625 0.867188,2.1796875 0.445312,0.65625 0.761718,1.1367188 0.890625,1.69921876 h -0.796875 c -0.574219,0 -0.609375,-0.0820313 -0.65625,-0.234375 -0.08203,-0.22265626 -0.128907,-0.48046876 -0.175782,-0.73828126 h -0.257812 l 0.328125,1.61718751 h 1.59375 c 0.222656,0 0.257812,0 0.257812,-0.2109375 0,-0.69140625 -0.316406,-1.57031251 -0.539062,-2.21484371 -0.210938,-0.5742188 -0.492188,-1.359375 -0.492188,-2.109375 0,-1.59375 1.101563,-2.2734375 2.003907,-2.2734375 0.960937,0 2.015625,0.7265625 2.015625,2.2734375 0,0.75 -0.269532,1.5117187 -0.5625,2.3203125 -0.152344,0.421875 -0.46875,1.31249996 -0.46875,2.00390621 0,0.2109375 0.03516,0.2109375 0.257812,0.2109375 h 1.582031 z m 0,0"
       style="fill:#000000;fill-opacity:1;fill-rule:nonzero;stroke:none"
       aria-label="10kΩ"
       transform="matrix(1.3333333,0,0,1.3333333,504.02267,456.276)" />
    <path
       id="path28"
       d="m 71.06627,198.42766 28.3468,-2e-5 m 0,0 28.34682,2e-5 v -75.1191 m 0,-19.84269 V 28.3468 -14.1734 m 0,0 V -56.69362 H 99.41307 m 0,0 h -28.3468"
       style="fill:none;stroke:#000000;stroke-width:0.3985;stroke-linecap:butt;stroke-linejoin:miter;stroke-miterlimit:10;stroke-dasharray:none;stroke-opacity:1"
       transform="matrix(1.3333333,0,0,-1.3333333,217.712,469.296)" />
    <path
       id="path29"
       d="m 132.72055,123.30856 v -19.84269 m 0,9.92135 h 4.96068"
       style="fill:none;stroke:#00ff00;stroke-width:0.797;stroke-linecap:butt;stroke-linejoin:miter;stroke-miterlimit:10;stroke-dasharray:none;stroke-opacity:1"
       transform="matrix(1.3333333,0,0,-1.3333333,217.712,469.296)" />
    <path
       id="path30"
       d="m 127.75989,121.7214 c 0.87655,0 1.58714,0.71059 1.58714,1.58716 0,0.87656 -0.71059,1.58714 -1.58714,1.58714 -0.87657,0 -1.58716,-0.71058 -1.58716,-1.58714 0,-0.87657 0.71059,-1.58716 1.58716,-1.58716 z"
       style="fill:#ffffff;fill-opacity:1;fill-rule:nonzero;stroke:#00ff00;stroke-width:0.797;stroke-linecap:butt;stroke-linejoin:miter;stroke-miterlimit:10;stroke-dasharray:none;stroke-opacity:1"
       transform="matrix(1.3333333,0,0,-1.3333333,217.712,469.296)" />
    <path
       id="path31"
       d="m 127.75989,101.87872 c 0.87655,0 1.58714,0.71059 1.58714,1.58715 0,0.87657 -0.71059,1.58715 -1.58714,1.58715 -0.87657,0 -1.58716,-0.71058 -1.58716,-1.58715 0,-0.87656 0.71059,-1.58715 1.58716,-1.58715 z"
       style="fill:#ffffff;fill-opacity:1;fill-rule:nonzero;stroke:#00ff00;stroke-width:0.797;stroke-linecap:butt;stroke-linejoin:miter;stroke-miterlimit:10;stroke-dasharray:none;stroke-opacity:1"
       transform="matrix(1.3333333,0,0,-1.3333333,217.712,469.296)" />
    <path
       id="path32"
       d="m 127.56062,-56.69362 h 97.51303 m 31.7484,0 h 97.51306"
       style="fill:none;stroke:#000000;stroke-width:0.3985;stroke-linecap:butt;stroke-linejoin:miter;stroke-miterlimit:10;stroke-dasharray:none;stroke-opacity:1"
       transform="matrix(1.3333333,0,0,-1.3333333,217.712,469.296)" />
    <path
       id="path33"
       d="m 224.67516,-56.69362 3.0774,5.95287 5.35782,-11.90572 5.35782,11.90572 5.35782,-11.90572 5.3578,11.90572 5.35782,-11.90572 2.67891,5.95285"
       style="fill:none;stroke:#000000;stroke-width:0.797;stroke-linecap:butt;stroke-linejoin:bevel;stroke-miterlimit:10;stroke-dasharray:none;stroke-opacity:1"
       transform="matrix(1.3333333,0,0,-1.3333333,217.712,469.296)" />
    <path
       id="path34"
       d="m 129.14778,-56.69362 c 0,0.87657 -0.71058,1.58716 -1.58716,1.58716 -0.87655,0 -1.58714,-0.71059 -1.58714,-1.58716 0,-0.87656 0.71059,-1.58714 1.58714,-1.58714 0.87658,0 1.58716,0.71058 1.58716,1.58714 z"
       style="fill:#000000;fill-opacity:1;fill-rule:nonzero;stroke:#000000;stroke-width:0.3985;stroke-linecap:butt;stroke-linejoin:miter;stroke-miterlimit:10;stroke-dasharray:none;stroke-opacity:1"
       transform="matrix(1.3333333,0,0,-1.3333333,217.712,469.296)" />
    <path
       id="path35"
       d="m 355.92226,-56.69362 c 0,0.87657 -0.71059,1.58716 -1.58715,1.58716 -0.87657,0 -1.58715,-0.71059 -1.58715,-1.58716 0,-0.87656 0.71058,-1.58714 1.58715,-1.58714 0.87656,0 1.58715,0.71058 1.58715,1.58714 z"
       style="fill:#000000;fill-opacity:1;fill-rule:nonzero;stroke:#000000;stroke-width:0.3985;stroke-linecap:butt;stroke-linejoin:miter;stroke-miterlimit:10;stroke-dasharray:none;stroke-opacity:1"
       transform="matrix(1.3333333,0,0,-1.3333333,217.712,469.296)" />
    <path
       id="path36"
       d="m 2.9300937,-6.3746094 c 0,-0.234375 0,-0.2578125 -0.234375,-0.2578125 -0.609375,0.6328125 -1.4882812,0.6328125 -1.80468745,0.6328125 v 0.3164063 c 0.19921875,0 0.78515625,0 1.30078125,-0.2578125 v 5.15624998 c 0,0.3515625 -0.035156,0.48046875 -0.9257813,0.48046875 H 0.949625 V 3.90625e-4 C 1.3011875,-0.03476562 2.1566562,-0.03476562 2.5550937,-0.03476562 c 0.3984375,0 1.265625,0 1.6171875,0.035156245 V -0.30429687 H 3.855875 c -0.9023438,0 -0.9257813,-0.1171875 -0.9257813,-0.48046875 z m 6.6328125,3.1875 c 0,-0.796875 -0.046875,-1.59375 -0.3984375,-2.3320312 -0.4570312,-0.9609375 -1.2773437,-1.1132813 -1.6875,-1.1132813 -0.5976562,0 -1.3359375,0.2578125 -1.734375,1.1835938 -0.328125,0.6914062 -0.375,1.4648437 -0.375,2.2617187 0,0.75 0.046875,1.640625 0.4453125,2.40234378 0.4335938,0.80859375 1.1601563,1.0078125 1.6523438,1.0078125 0.5390625,0 1.2890625,-0.2109375 1.734375,-1.16015625 C 9.5160312,-1.6285156 9.5629062,-2.4019531 9.5629062,-3.1871094 Z M 7.46525,3.90625e-4 c -0.3867188,0 -0.984375,-0.246093745 -1.1601563,-1.207031225 C 6.199625,-1.8042969 6.199625,-2.7183594 6.199625,-3.3042969 c 0,-0.6445312 0,-1.3007812 0.082031,-1.8398437 0.1875,-1.1835938 0.9257813,-1.265625 1.1835938,-1.265625 0.328125,0 0.984375,0.1757812 1.171875,1.1601562 0.09375,0.5625 0.09375,1.3125 0.09375,1.9453125 0,0.75 0,1.4179688 -0.1054688,2.0625 C 8.4730625,-0.30429687 7.9105625,3.90625e-4 7.46525,3.90625e-4 Z m 5.214844,-0.761718745 c 0,0.45703125 -0.105469,0.45703125 -0.773438,0.45703125 V 3.90625e-4 c 0.328125,-0.011718745 0.796875,-0.035156245 1.078125,-0.035156245 0.304688,0 0.703125,0.01171875 1.101563,0.035156245 V -0.30429687 c -0.667969,0 -0.773438,0 -0.773438,-0.45703125 V -1.7808594 l 0.632813,-0.5507812 c 0.773437,1.0546875 1.183593,1.61718748 1.183593,1.79296873 0,0.1875 -0.164062,0.234375 -0.351562,0.234375 V 3.90625e-4 c 0.269531,-0.011718745 0.867187,-0.035156245 1.066406,-0.035156245 0.292969,0 0.585938,0.01171875 0.867188,0.035156245 V -0.30429687 c -0.363282,0 -0.585938,0 -0.960938,-0.52734375 L 14.484781,-2.6246094 c -0.01172,-0.011719 -0.05859,-0.070312 -0.05859,-0.1054687 0,-0.035156 0.703125,-0.6328125 0.808594,-0.7148438 0.621094,-0.5039062 1.042969,-0.5273437 1.253906,-0.5390625 v -0.3046875 c -0.292968,0.023437 -0.421875,0.023437 -0.703125,0.023437 -0.351562,0 -0.972656,-0.023437 -1.113281,-0.023437 v 0.3046875 c 0.1875,0.011719 0.292969,0.1171875 0.292969,0.2460938 0,0.1992187 -0.140625,0.3164062 -0.222656,0.3867187 l -1.40625,1.21875 v -4.78125 l -1.429688,0.1054688 v 0.3164062 c 0.691406,0 0.773438,0.070312 0.773438,0.5507813 z M 23.622477,-1.6167969 h -0.246094 c -0.04687,0.2578125 -0.08203,0.4921875 -0.175781,0.72656253 -0.04687,0.1640625 -0.08203,0.24609375 -0.65625,0.24609375 h -0.796875 c 0.128906,-0.56249998 0.433593,-1.04296878 0.878906,-1.69921878 0.46875,-0.703125 0.878906,-1.3945312 0.878906,-2.1796875 0,-1.3828125 -1.335937,-2.4960937 -3.023437,-2.4960937 -1.710938,0 -3.035157,1.1367187 -3.035157,2.4960937 0,0.7851563 0.398438,1.4765625 0.867188,2.1796875 0.445312,0.65625 0.761719,1.1367188 0.890625,1.69921878 h -0.796875 c -0.574219,0 -0.609375,-0.0820313 -0.65625,-0.234375 -0.08203,-0.22265628 -0.128906,-0.48046878 -0.175781,-0.73828128 h -0.257813 l 0.328125,1.617187525 h 1.59375 c 0.222656,0 0.257813,0 0.257813,-0.210937495 0,-0.69140625 -0.316407,-1.57031253 -0.539063,-2.21484373 -0.210937,-0.5742188 -0.492187,-1.359375 -0.492187,-2.109375 0,-1.59375 1.101562,-2.2734375 2.003906,-2.2734375 0.960937,0 2.015625,0.7265625 2.015625,2.2734375 0,0.75 -0.269531,1.5117187 -0.5625,2.3203125 -0.152344,0.421875 -0.46875,1.31249998 -0.46875,2.00390623 0,0.210937495 0.03516,0.210937495 0.257812,0.210937495 h 1.582032 z m 0,0"
       style="fill:#000000;fill-opacity:1;fill-rule:nonzero;stroke:none"
       aria-label="10kΩ"
       transform="matrix(1.3333333,0,0,1.3333333,522.92133,531.86667)" />
    <path
       id="path37"
       d="m 71.06627,28.3468 105.45029,-1e-5 m 15.8739,0 105.45028,1e-5 -1.7008,-1e-5 m 31.7484,0 -1.70079,1e-5 14.1734,-1e-5 m 0,0 14.17341,1e-5"
       style="fill:none;stroke:#000000;stroke-width:0.3985;stroke-linecap:butt;stroke-linejoin:miter;stroke-miterlimit:10;stroke-dasharray:none;stroke-opacity:1"
       transform="matrix(1.3333333,0,0,-1.3333333,217.712,469.296)" />
    <path
       id="path38"
       d="m 192.39046,28.34679 -15.8739,9.92134 V 18.42545 Z"
       style="fill:none;stroke:#ff0000;stroke-width:0.797;stroke-linecap:butt;stroke-linejoin:miter;stroke-miterlimit:10;stroke-dasharray:none;stroke-opacity:1"
       transform="matrix(1.3333333,0,0,-1.3333333,217.712,469.296)" />
    <path
       id="path39"
       d="M 192.39046,18.42545 V 38.26813"
       style="fill:none;stroke:#ff0000;stroke-width:0.797;stroke-linecap:butt;stroke-linejoin:miter;stroke-miterlimit:10;stroke-dasharray:none;stroke-opacity:1"
       transform="matrix(1.3333333,0,0,-1.3333333,217.712,469.296)" />
    <path
       id="path40"
       d="m 181.27878,38.26813 6.44339,8.0544"
       style="fill:none;stroke:#ff0000;stroke-width:0.3985;stroke-linecap:butt;stroke-linejoin:miter;stroke-miterlimit:10;stroke-dasharray:none;stroke-opacity:1"
       transform="matrix(1.3333333,0,0,-1.3333333,217.712,469.296)" />
    <path
       id="path41"
       d="m 2.39102,0 c -0.99626,0.19925 -2.78952,0.59775 -3.98503,1.49438 0.99626,-1.09588 0.99626,-1.89288 0,-2.98876 C -0.3985,-0.59775 1.39476,-0.19925 2.39102,0 Z"
       style="fill:#ff0000;fill-opacity:1;fill-rule:nonzero;stroke:none"
       transform="matrix(0.83286667,-1.0410933,-1.0410933,-0.83286667,468.00823,407.53265)" />
    <path
       id="path42"
       d="m 186.04086,36.28387 6.44341,8.0544"
       style="fill:none;stroke:#ff0000;stroke-width:0.3985;stroke-linecap:butt;stroke-linejoin:miter;stroke-miterlimit:10;stroke-dasharray:none;stroke-opacity:1"
       transform="matrix(1.3333333,0,0,-1.3333333,217.712,469.296)" />
    <path
       id="path43"
       d="m 2.39102,0 c -0.99626,0.19925 -2.78952,0.59775 -3.98503,1.49438 0.99626,-1.09588 0.99626,-1.89288 0,-2.98876 C -0.3985,-0.59775 1.39476,-0.19925 2.39102,0 Z"
       style="fill:#ff0000;fill-opacity:1;fill-rule:nonzero;stroke:none"
       transform="matrix(0.83286667,-1.0410933,-1.0410933,-0.83286667,474.35769,410.17832)" />
    <path
       id="path44"
       d="m 295.74144,28.34679 3.07741,5.95285 5.35782,-11.9057 5.35781,11.9057 5.35782,-11.9057 5.3578,11.9057 5.35783,-11.9057 2.6789,5.95285"
       style="fill:none;stroke:#000000;stroke-width:0.797;stroke-linecap:butt;stroke-linejoin:bevel;stroke-miterlimit:10;stroke-dasharray:none;stroke-opacity:1"
       transform="matrix(1.3333333,0,0,-1.3333333,217.712,469.296)" />
    <path
       id="path45"
       d="M 1.2661562,-0.76136719 2.3208437,-1.7926172 c 1.5585938,-1.3710937 2.15625,-1.9101562 2.15625,-2.90625 0,-1.1367187 -0.9023437,-1.9335937 -2.1210937,-1.9335937 -1.125,0 -1.8515625,0.9140625 -1.8515625,1.8046875 0,0.5507812 0.4921875,0.5507812 0.5273437,0.5507812 0.1640625,0 0.515625,-0.1171875 0.515625,-0.5273437 0,-0.2578125 -0.1875,-0.515625 -0.5273437,-0.515625 -0.0820313,0 -0.10546875,0 -0.12890625,0.011719 0.22265625,-0.6445312 0.76171875,-1.0195312 1.33593745,-1.0195312 0.9140625,0 1.3359375,0.8085937 1.3359375,1.6289062 0,0.796875 -0.4921875,1.5820313 -1.0429687,2.203125 L 0.60990625,-0.36292969 C 0.5044375,-0.25746094 0.5044375,-0.23402344 0.5044375,3.515625e-4 H 4.1958437 L 4.4770937,-1.7340234 H 4.2192812 c -0.046875,0.3046875 -0.1171875,0.73828121 -0.2109375,0.89062496 -0.070312,0.0820313 -0.7265625,0.0820313 -0.9492187,0.0820313 z m 4.9804688,0 1.0546875,-1.03125001 c 1.5585937,-1.3710937 2.15625,-1.9101562 2.15625,-2.90625 0,-1.1367187 -0.9023438,-1.9335937 -2.1210938,-1.9335937 -1.125,0 -1.8515625,0.9140625 -1.8515625,1.8046875 0,0.5507812 0.4921875,0.5507812 0.5273438,0.5507812 0.1640625,0 0.515625,-0.1171875 0.515625,-0.5273437 0,-0.2578125 -0.1875,-0.515625 -0.5273438,-0.515625 -0.082031,0 -0.1054687,0 -0.1289062,0.011719 0.2226562,-0.6445312 0.7617187,-1.0195312 1.3359375,-1.0195312 0.9140625,0 1.3359375,0.8085937 1.3359375,1.6289062 0,0.796875 -0.4921875,1.5820313 -1.0429688,2.203125 L 5.590375,-0.36292969 C 5.4849062,-0.25746094 5.4849062,-0.23402344 5.4849062,3.515625e-4 H 9.1763125 L 9.4575625,-1.7340234 H 9.19975 C 9.152875,-1.4293359 9.0825625,-0.99574219 8.9888125,-0.84339844 8.9185,-0.76136719 8.26225,-0.76136719 8.0395937,-0.76136719 Z M 14.5435,-3.1871484 c 0,-0.796875 -0.04687,-1.59375 -0.398438,-2.3320313 -0.457031,-0.9609375 -1.277343,-1.1132812 -1.6875,-1.1132812 -0.597656,0 -1.335937,0.2578125 -1.734375,1.1835937 -0.328125,0.6914063 -0.375,1.4648438 -0.375,2.2617188 0,0.75 0.04687,1.640625 0.445313,2.40234371 0.433594,0.80859375 1.160156,1.0078125 1.652344,1.0078125 0.539062,0 1.289062,-0.2109375 1.734375,-1.16015625 C 14.496625,-1.6285547 14.5435,-2.4019922 14.5435,-3.1871484 Z M 12.445844,3.515625e-4 c -0.386719,0 -0.984375,-0.2460937525 -1.160157,-1.2070312625 -0.105468,-0.5976562 -0.105468,-1.5117187 -0.105468,-2.0976562 0,-0.6445313 0,-1.3007813 0.08203,-1.8398438 0.1875,-1.1835937 0.925781,-1.265625 1.183594,-1.265625 0.328125,0 0.984375,0.1757813 1.171875,1.1601563 0.09375,0.5625 0.09375,1.3125 0.09375,1.9453125 0,0.75 0,1.4179687 -0.105469,2.0625 -0.152344,0.93749996 -0.714844,1.2421874625 -1.160156,1.2421874625 z M 23.347211,-1.6168359 h -0.246094 c -0.04687,0.2578125 -0.08203,0.4921875 -0.175781,0.72656246 -0.04687,0.1640625 -0.08203,0.24609375 -0.65625,0.24609375 h -0.796875 c 0.128906,-0.56250001 0.433594,-1.04296871 0.878906,-1.69921871 0.46875,-0.703125 0.878906,-1.3945313 0.878906,-2.1796875 0,-1.3828125 -1.335937,-2.4960938 -3.023437,-2.4960938 -1.710938,0 -3.035156,1.1367188 -3.035156,2.4960938 0,0.7851562 0.398437,1.4765625 0.867187,2.1796875 0.445313,0.65625 0.761719,1.1367187 0.890625,1.69921871 h -0.796875 c -0.574219,0 -0.609375,-0.0820313 -0.65625,-0.234375 -0.08203,-0.22265621 -0.128906,-0.48046871 -0.175781,-0.73828121 h -0.257813 l 0.328125,1.6171874625 h 1.59375 c 0.222657,0 0.257813,0 0.257813,-0.2109375025 0,-0.69140625 -0.316406,-1.57031246 -0.539063,-2.21484376 -0.210937,-0.5742187 -0.492187,-1.359375 -0.492187,-2.109375 0,-1.59375 1.101562,-2.2734375 2.003906,-2.2734375 0.960938,0 2.015625,0.7265625 2.015625,2.2734375 0,0.75 -0.269531,1.5117188 -0.5625,2.3203125 -0.152344,0.421875 -0.46875,1.31250001 -0.46875,2.00390626 0,0.2109375025 0.03516,0.2109375025 0.257813,0.2109375025 h 1.582031 z m 0,0"
       style="fill:#000000;fill-opacity:1;fill-rule:nonzero;stroke:none"
       aria-label="220Ω"
       transform="matrix(1.3333333,0,0,1.3333333,617.85867,418.48)" />
    <path
       id="path46"
       d="m 356.1215,28.3468 c 0,0.87656 -0.71058,1.58714 -1.58714,1.58714 -0.87656,0 -1.58714,-0.71058 -1.58714,-1.58714 0,-0.87655 0.71058,-1.58714 1.58714,-1.58714 0.87656,0 1.58714,0.71059 1.58714,1.58714 z"
       style="fill:#000000;fill-opacity:1;fill-rule:nonzero;stroke:#000000;stroke-width:0.3985;stroke-linecap:butt;stroke-linejoin:miter;stroke-miterlimit:10;stroke-dasharray:none;stroke-opacity:1"
       transform="matrix(1.3333333,0,0,-1.3333333,217.712,469.296)" />
    <path
       id="path47"
       d="m 71.06627,-28.3468 105.45029,1e-5 m 15.8739,0 105.45028,-1e-5 -1.7008,1e-5 m 31.7484,0 -1.70079,-1e-5 14.1734,1e-5 m 0,0 14.17341,-1e-5"
       style="fill:none;stroke:#000000;stroke-width:0.3985;stroke-linecap:butt;stroke-linejoin:miter;stroke-miterlimit:10;stroke-dasharray:none;stroke-opacity:1"
       transform="matrix(1.3333333,0,0,-1.3333333,217.712,469.296)" />
    <path
       id="path48"
       d="m 192.39046,-28.34679 -15.8739,9.92134 v -19.84268 z"
       style="fill:none;stroke:#00ff00;stroke-width:0.797;stroke-linecap:butt;stroke-linejoin:miter;stroke-miterlimit:10;stroke-dasharray:none;stroke-opacity:1"
       transform="matrix(1.3333333,0,0,-1.3333333,217.712,469.296)" />
    <path
       id="path49"
       d="m 192.39046,-38.26813 v 19.84268"
       style="fill:none;stroke:#00ff00;stroke-width:0.797;stroke-linecap:butt;stroke-linejoin:miter;stroke-miterlimit:10;stroke-dasharray:none;stroke-opacity:1"
       transform="matrix(1.3333333,0,0,-1.3333333,217.712,469.296)" />
    <path
       id="path50"
       d="m 181.27878,-18.42545 6.44339,8.05439"
       style="fill:none;stroke:#00ff00;stroke-width:0.3985;stroke-linecap:butt;stroke-linejoin:miter;stroke-miterlimit:10;stroke-dasharray:none;stroke-opacity:1"
       transform="matrix(1.3333333,0,0,-1.3333333,217.712,469.296)" />
    <path
       id="path51"
       d="m 2.39102,0 c -0.99626,0.19925 -2.78952,0.59775 -3.98503,1.49438 0.99626,-1.09588 0.99626,-1.89288 0,-2.98876 C -0.3985,-0.59775 1.39476,-0.19925 2.39102,0 Z"
       style="fill:#00ff00;fill-opacity:1;fill-rule:nonzero;stroke:none"
       transform="matrix(0.83286667,-1.0410933,-1.0410933,-0.83286667,468.00823,483.12411)" />
    <path
       id="path52"
       d="m 186.04086,-20.4097 6.44341,8.05438"
       style="fill:none;stroke:#00ff00;stroke-width:0.3985;stroke-linecap:butt;stroke-linejoin:miter;stroke-miterlimit:10;stroke-dasharray:none;stroke-opacity:1"
       transform="matrix(1.3333333,0,0,-1.3333333,217.712,469.296)" />
    <path
       id="path53"
       d="m 2.39102,0 c -0.99626,0.19925 -2.78952,0.59775 -3.98503,1.49438 0.99626,-1.09588 0.99626,-1.89288 0,-2.98876 C -0.3985,-0.59775 1.39476,-0.19925 2.39102,0 Z"
       style="fill:#00ff00;fill-opacity:1;fill-rule:nonzero;stroke:none"
       transform="matrix(0.83286667,-1.0410933,-1.0410933,-0.83286667,474.35769,485.76977)" />
    <path
       id="path54"
       d="m 295.74144,-28.34679 3.07741,5.95285 5.35782,-11.9057 5.35781,11.9057 5.35782,-11.9057 5.3578,11.9057 5.35783,-11.9057 2.6789,5.95285"
       style="fill:none;stroke:#000000;stroke-width:0.797;stroke-linecap:butt;stroke-linejoin:bevel;stroke-miterlimit:10;stroke-dasharray:none;stroke-opacity:1"
       transform="matrix(1.3333333,0,0,-1.3333333,217.712,469.296)" />
    <path
       id="path55"
       d="M 1.2661562,-0.76198438 2.3208437,-1.7932344 c 1.5585938,-1.3710937 2.15625,-1.9101562 2.15625,-2.90625 0,-1.1367187 -0.9023437,-1.9335937 -2.1210937,-1.9335937 -1.125,0 -1.8515625,0.9140625 -1.8515625,1.8046875 0,0.5507812 0.4921875,0.5507812 0.5273437,0.5507812 0.1640625,0 0.515625,-0.1171875 0.515625,-0.5273437 0,-0.2578125 -0.1875,-0.515625 -0.5273437,-0.515625 -0.0820313,0 -0.10546875,0 -0.12890625,0.011719 0.22265625,-0.6445312 0.76171875,-1.0195312 1.33593745,-1.0195312 0.9140625,0 1.3359375,0.8085937 1.3359375,1.6289062 0,0.796875 -0.4921875,1.5820313 -1.0429687,2.203125 L 0.60990625,-0.36354688 C 0.5044375,-0.25807813 0.5044375,-0.23464063 0.5044375,-2.65625e-4 H 4.1958437 L 4.4770937,-1.7346406 H 4.2192812 c -0.046875,0.3046875 -0.1171875,0.73828122 -0.2109375,0.89062497 -0.070312,0.0820313 -0.7265625,0.0820313 -0.9492187,0.0820313 z m 4.9804688,0 1.0546875,-1.03125002 c 1.5585937,-1.3710937 2.15625,-1.9101562 2.15625,-2.90625 0,-1.1367187 -0.9023438,-1.9335937 -2.1210938,-1.9335937 -1.125,0 -1.8515625,0.9140625 -1.8515625,1.8046875 0,0.5507812 0.4921875,0.5507812 0.5273438,0.5507812 0.1640625,0 0.515625,-0.1171875 0.515625,-0.5273437 0,-0.2578125 -0.1875,-0.515625 -0.5273438,-0.515625 -0.082031,0 -0.1054687,0 -0.1289062,0.011719 0.2226562,-0.6445312 0.7617187,-1.0195312 1.3359375,-1.0195312 0.9140625,0 1.3359375,0.8085937 1.3359375,1.6289062 0,0.796875 -0.4921875,1.5820313 -1.0429688,2.203125 L 5.590375,-0.36354688 C 5.4849062,-0.25807813 5.4849062,-0.23464063 5.4849062,-2.65625e-4 H 9.1763125 L 9.4575625,-1.7346406 H 9.19975 C 9.152875,-1.4299531 9.0825625,-0.99635938 8.9888125,-0.84401563 8.9185,-0.76198438 8.26225,-0.76198438 8.0395937,-0.76198438 Z M 14.5435,-3.1877656 c 0,-0.796875 -0.04687,-1.59375 -0.398438,-2.3320313 -0.457031,-0.9609375 -1.277343,-1.1132812 -1.6875,-1.1132812 -0.597656,0 -1.335937,0.2578125 -1.734375,1.1835937 -0.328125,0.6914063 -0.375,1.4648438 -0.375,2.2617188 0,0.75 0.04687,1.640625 0.445313,2.40234372 0.433594,0.80859375 1.160156,1.0078125 1.652344,1.0078125 0.539062,0 1.289062,-0.2109375 1.734375,-1.16015625 C 14.496625,-1.6291719 14.5435,-2.4026094 14.5435,-3.1877656 Z m -2.097656,3.187499975 c -0.386719,0 -0.984375,-0.246093755 -1.160157,-1.207031275 -0.105468,-0.5976562 -0.105468,-1.5117187 -0.105468,-2.0976562 0,-0.6445313 0,-1.3007813 0.08203,-1.8398438 0.1875,-1.1835937 0.925781,-1.265625 1.183594,-1.265625 0.328125,0 0.984375,0.1757813 1.171875,1.1601563 0.09375,0.5625 0.09375,1.3125 0.09375,1.9453125 0,0.75 0,1.4179687 -0.105469,2.0625 -0.152344,0.93749997 -0.714844,1.242187475 -1.160156,1.242187475 z M 23.347211,-1.6174531 h -0.246094 c -0.04687,0.2578125 -0.08203,0.4921875 -0.175781,0.72656247 -0.04687,0.1640625 -0.08203,0.24609375 -0.65625,0.24609375 h -0.796875 c 0.128906,-0.56250002 0.433594,-1.04296872 0.878906,-1.69921872 0.46875,-0.703125 0.878906,-1.3945313 0.878906,-2.1796875 0,-1.3828125 -1.335937,-2.4960938 -3.023437,-2.4960938 -1.710938,0 -3.035156,1.1367188 -3.035156,2.4960938 0,0.7851562 0.398437,1.4765625 0.867187,2.1796875 0.445313,0.65625 0.761719,1.1367187 0.890625,1.69921872 h -0.796875 c -0.574219,0 -0.609375,-0.0820313 -0.65625,-0.234375 -0.08203,-0.22265622 -0.128906,-0.48046872 -0.175781,-0.73828122 h -0.257813 l 0.328125,1.617187475 h 1.59375 c 0.222657,0 0.257813,0 0.257813,-0.210937505 0,-0.69140625 -0.316406,-1.57031247 -0.539063,-2.21484377 -0.210937,-0.5742187 -0.492187,-1.359375 -0.492187,-2.109375 0,-1.59375 1.101562,-2.2734375 2.003906,-2.2734375 0.960938,0 2.015625,0.7265625 2.015625,2.2734375 0,0.75 -0.269531,1.5117188 -0.5625,2.3203125 -0.152344,0.421875 -0.46875,1.31250002 -0.46875,2.00390627 0,0.210937505 0.03516,0.210937505 0.257813,0.210937505 h 1.582031 z m 0,0"
       style="fill:#000000;fill-opacity:1;fill-rule:nonzero;stroke:none"
       aria-label="220Ω"
       transform="matrix(1.3333333,0,0,1.3333333,617.85867,494.07067)" />
    <path
       id="path56"
       d="m 356.1215,-28.3468 c 0,0.87655 -0.71058,1.58714 -1.58714,1.58714 -0.87656,0 -1.58714,-0.71059 -1.58714,-1.58714 0,-0.87656 0.71058,-1.58714 1.58714,-1.58714 0.87656,0 1.58714,0.71058 1.58714,1.58714 z"
       style="fill:#000000;fill-opacity:1;fill-rule:nonzero;stroke:#000000;stroke-width:0.3985;stroke-linecap:butt;stroke-linejoin:miter;stroke-miterlimit:10;stroke-dasharray:none;stroke-opacity:1"
       transform="matrix(1.3333333,0,0,-1.3333333,217.712,469.296)" />
    <path
       id="path57"
       d="m 2.9285234,-6.3742578 c 0,-0.234375 0,-0.2578125 -0.234375,-0.2578125 -0.609375,0.6328125 -1.4882812,0.6328125 -1.80468746,0.6328125 v 0.3164062 c 0.19921876,0 0.78515626,0 1.30078126,-0.2578125 v 5.15625004 c 0,0.3515625 -0.035156,0.48046875 -0.9257813,0.48046875 H 0.94805469 V 7.421875e-4 C 1.2996172,-0.03441406 2.1550859,-0.03441406 2.5535234,-0.03441406 c 0.3984375,0 1.265625,0 1.6171875,0.0351562475 V -0.30394531 H 3.8543047 c -0.9023438,0 -0.9257813,-0.1171875 -0.9257813,-0.48046875 z m 0,0"
       style="fill:#000000;fill-opacity:1;fill-rule:nonzero;stroke:none"
       aria-label="1"
       transform="matrix(1.3333333,0,0,1.3333333,404.17733,936.84667)" />
  </g>
</svg>
